<svg width="1200" height="630" viewBox="0 0 1200 630" fill="none" xmlns="http://www.w3.org/2000/svg" role="img" aria-labelledby="title desc">
  <title id="title">SiteDokAI — Gratis mini-tjek</title>
  <desc id="desc">Find det, der får din hjemmeside til at miste kunder.</desc>
  <rect width="1200" height="630" fill="#FBF7EF"/>
  <rect x="52" y="52" width="1096" height="526" rx="42" fill="#FFFDF8" stroke="#E8DED0"/>
  <circle cx="1040" cy="126" r="210" fill="#DFE8DC" opacity="0.55"/>
  <circle cx="110" cy="500" r="230" fill="#FFFFFF" opacity="0.55"/>

  <text x="112" y="136" fill="#526B55" font-family="Arial, sans-serif" font-size="24" font-weight="800" letter-spacing="0.18em">GRATIS MINI-TJEK FOR SMÅ VIRKSOMHEDER</text>
  <text x="112" y="250" fill="#202622" font-family="Georgia, serif" font-size="74" font-weight="500">Find det, der får</text>
  <text x="112" y="332" fill="#202622" font-family="Georgia, serif" font-size="74" font-weight="500">din hjemmeside til</text>
  <text x="112" y="414" fill="#202622" font-family="Georgia, serif" font-size="74" font-weight="500">at miste kunder.</text>
  <text x="116" y="482" fill="#66706A" font-family="Arial, sans-serif" font-size="29" font-weight="600">Klarhed · Tillid · Synlighed · Flere henvendelser</text>

  <g transform="translate(780 300)">
    <path d="M-40 110C40 70 100 82 176 114C246 143 320 132 438 78V230H-40Z" fill="#DFE8DC"/>
    <path d="M-40 166C54 108 146 120 236 158C308 188 374 178 438 142V230H-40Z" fill="#8FA08D" opacity="0.35"/>
    <path d="M168 18L230 108L264 66L354 190H94L168 18Z" fill="#9CAC98" opacity="0.28"/>
  </g>

  <g transform="translate(790 122)">
    <rect width="275" height="62" rx="18" fill="#FFFFFF" stroke="#E8DED0"/>
    <circle cx="34" cy="31" r="15" fill="#DFE8DC"/>
    <text x="60" y="38" fill="#202622" font-family="Arial, sans-serif" font-size="22" font-weight="700">Uklart budskab</text>
  </g>
  <g transform="translate(740 202)">
    <rect width="304" height="62" rx="18" fill="#FFFFFF" stroke="#E8DED0"/>
    <circle cx="34" cy="31" r="15" fill="#DFE8DC"/>
    <text x="60" y="38" fill="#202622" font-family="Arial, sans-serif" font-size="22" font-weight="700">Tillid kan styrkes</text>
  </g>
  <g transform="translate(825 282)">
    <rect width="315" height="62" rx="18" fill="#FFFFFF" stroke="#E8DED0"/>
    <circle cx="34" cy="31" r="15" fill="#DFE8DC"/>
    <text x="60" y="38" fill="#202622" font-family="Arial, sans-serif" font-size="22" font-weight="700">Svær at forstå i Google</text>
  </g>

  <g transform="translate(112 522)">
    <rect width="240" height="56" rx="16" fill="#6F8A72"/>
    <text x="31" y="36" fill="#FFFFFF" font-family="Arial, sans-serif" font-size="22" font-weight="800">Få gratis mini-tjek</text>
  </g>
</svg>
